<svg xmlns="http://www.w3.org/2000/svg" width="27.292" height="28.291" viewBox="0 0 27.292 28.291"><defs><style>.a{fill:none;stroke:#000;stroke-linecap:round;stroke-linejoin:round;stroke-width:2px;}</style></defs><g transform="translate(-292.102 -18.678)"><g transform="translate(293.516 38.092)"><path class="a" d="M17.963,10.5,10.5,17.963" transform="translate(-10.5 -10.5)"/><path class="a" d="M17.963,17.963H10.5V10.5" transform="translate(-10.5 -10.5)"/></g><g transform="translate(300.979 20.092) rotate(90)"><path class="a" d="M17.963,10.5,10.5,17.963" transform="translate(-10.5 -10.5)"/><path class="a" d="M17.963,17.963H10.5V10.5" transform="translate(-10.5 -10.5)"/></g><g transform="translate(317.979 27.555) rotate(180)"><path class="a" d="M17.963,10.5,10.5,17.963" transform="translate(-10.5 -10.5)"/><path class="a" d="M17.963,17.963H10.5V10.5" transform="translate(-10.5 -10.5)"/></g><g transform="translate(310.517 45.555) rotate(-90)"><path class="a" d="M17.963,10.5,10.5,17.963" transform="translate(-10.5 -10.5)"/><path class="a" d="M17.963,17.963H10.5V10.5" transform="translate(-10.5 -10.5)"/></g></g></svg>